<svg fill="none" height="80" viewBox="0 0 80 80" width="80" xmlns="http://www.w3.org/2000/svg" xmlns:xlink="http://www.w3.org/1999/xlink"><linearGradient id="a" gradientUnits="userSpaceOnUse" x1="54.2249" x2="54.2249" y1="59.2988" y2="29.6682"><stop offset=".00132565" stop-color="#ffba47"/><stop offset="1" stop-color="#ffd748"/></linearGradient><linearGradient id="b"><stop offset="0" stop-color="#ffbc47" stop-opacity="0"/><stop offset="1" stop-color="#ffbc47"/></linearGradient><linearGradient id="c" gradientUnits="userSpaceOnUse" x1="57.7815" x2="57.7815" xlink:href="#b" y1=".504703" y2="56.3694"/><linearGradient id="d" gradientUnits="userSpaceOnUse" x1="49.6885" x2="49.6885" xlink:href="#b" y1=".504317" y2="56.369"/><linearGradient id="e"><stop offset=".00132565" stop-color="#ffcb4b"/><stop offset="1" stop-color="#ffd748"/></linearGradient><linearGradient id="f" gradientUnits="userSpaceOnUse" x1="22.889" x2="25.2401" xlink:href="#e" y1="39.1492" y2="23.7261"/><linearGradient id="g" gradientUnits="userSpaceOnUse" x1="24.7839" x2="27.135" xlink:href="#b" y1="14.9066" y2="36.6306"/><linearGradient id="h" gradientUnits="userSpaceOnUse" x1="20.5677" x2="60.6735" xlink:href="#e" y1="49.9246" y2="49.9246"/><linearGradient id="i" gradientUnits="userSpaceOnUse" x1="36.6098" x2="41.0484" y1="69.7149" y2="32.0828"><stop offset="0" stop-color="#a1541e" stop-opacity="0"/><stop offset="1" stop-color="#c86f34"/></linearGradient><linearGradient id="j" gradientUnits="userSpaceOnUse" x1="34.4711" x2="34.4711" xlink:href="#e" y1="36.7539" y2="52.4551"/><linearGradient id="k"><stop offset="0" stop-color="#ffbc47" stop-opacity="0"/><stop offset="1" stop-color="#c86f34"/></linearGradient><linearGradient id="l" gradientUnits="userSpaceOnUse" x1="34.459" x2="34.459" xlink:href="#k" y1="35.2422" y2="58.8967"/><linearGradient id="m" gradientUnits="userSpaceOnUse" x1="34.4374" x2="34.4374" xlink:href="#e" y1="40.4202" y2="26.7166"/><linearGradient id="n" gradientUnits="userSpaceOnUse" x1="28.3024" x2="68.5594" xlink:href="#k" y1="33.306" y2="56.1752"/><linearGradient id="o" gradientUnits="userSpaceOnUse" x1="31.9812" x2="51.4012" xlink:href="#k" y1="65.9066" y2="6.64558"/><linearGradient id="p"><stop offset="0" stop-color="#fbe07a"/><stop offset=".2654" stop-color="#fcdf73" stop-opacity=".7346"/><stop offset=".6548" stop-color="#fddb5f" stop-opacity=".3452"/><stop offset="1" stop-color="#ffd748" stop-opacity="0"/></linearGradient><radialGradient id="q" cx="0" cy="0" gradientTransform="matrix(-1.87279264 2.21043208 -1.17014123 -.99140431 20.8784 19.338)" gradientUnits="userSpaceOnUse" r="1" xlink:href="#p"/><radialGradient id="r" cx="0" cy="0" gradientTransform="matrix(-1.9924358 -2.10421819 1.11387741 -1.0547049 53.9803 9.29727)" gradientUnits="userSpaceOnUse" r="1" xlink:href="#p"/><linearGradient id="s" gradientUnits="userSpaceOnUse" x1="44.657" x2="44.1685" xlink:href="#e" y1="35.3214" y2="50.6777"/><linearGradient id="t" gradientUnits="userSpaceOnUse" x1="44.6953" x2="43.9646" xlink:href="#k" y1="33.8004" y2="56.7681"/><linearGradient id="u" gradientUnits="userSpaceOnUse" x1="44.5517" x2="44.9291" xlink:href="#e" y1="37.6197" y2="25.7582"/><linearGradient id="v" gradientUnits="userSpaceOnUse" x1="38.7731" x2="76.6795" xlink:href="#k" y1="31.8163" y2="54.9733"/><linearGradient id="w" gradientUnits="userSpaceOnUse" x1="20.4427" x2="60.7101" xlink:href="#e" y1="56.7956" y2="56.7956"/><radialGradient id="x" cx="0" cy="0" gradientTransform="matrix(72.1803 0 0 73.0443 40.1834 14.1058)" gradientUnits="userSpaceOnUse" r="1"><stop offset=".6134" stop-color="#ffbc47" stop-opacity="0"/><stop offset="1" stop-color="#ff8900"/></radialGradient><radialGradient id="y" cx="0" cy="0" gradientTransform="matrix(47.04 0 0 20.3876 45.6591 40.9843)" gradientUnits="userSpaceOnUse" r="1"><stop offset="0" stop-color="#ffbc47" stop-opacity="0"/><stop offset="1" stop-color="#ffa754"/></radialGradient><linearGradient id="z" gradientUnits="userSpaceOnUse" x1="50.3474" x2="43.6548" xlink:href="#b" y1="36.0068" y2="69.341"/><radialGradient id="A" cx="0" cy="0" gradientTransform="matrix(-10.06535286 -8.864752 4.05109087 -4.59975182 31.4717 59.8438)" gradientUnits="userSpaceOnUse" r="1" xlink:href="#p"/><radialGradient id="B" cx="0" cy="0" gradientTransform="matrix(8.08389199 6.44077529 -2.37757207 2.98411836 51.9611 45.328)" gradientUnits="userSpaceOnUse" r="1" xlink:href="#p"/><linearGradient id="C" gradientUnits="userSpaceOnUse" x1="51.1564" x2="-84.5137" xlink:href="#k" y1="45.0508" y2="46.8651"/><linearGradient id="D" gradientUnits="userSpaceOnUse" x1="54.6718" x2="12.2582" xlink:href="#k" y1="13.0533" y2="178.006"/><path d="m48.5825 34.8864c.0195-.3888.0389-.8067.0551-1.257.2786-7.3286.2365-22.0958.5702-24.03966.3532-2.06054 1.4871-3.5865 4.4451-3.58974 2.9579-.00324 4.4029 2.77329 4.0563 6.5153-.3467 3.742.4017 17.7284.6285 22.4359.3499 7.2929 1.5292 18.5999 1.5292 18.5999l-10.9798-7.5099z" fill="url(#a)"/><path d="m58.3377 34.9545c-.2268-4.7108-.9752-18.6939-.6285-22.4359.2268-2.4332-.3175-4.44187-1.5324-5.55962 1.0335 3.25602.6123 8.08662.9168 20.91642.3759 15.9886 1.6912 21.3473 1.6912 21.3473l.5994-.5734c-.3661-3.9429-.8456-9.4831-1.0465-13.6948z" fill="url(#c)"/><path d="m50.228 22.5098c-.2105-7.5423-.4665-12.7455.567-15.73587-.9104.64472-1.3834 1.63611-1.5843 2.81541-.3337 1.94386-.2915 16.70786-.5702 24.03966-.0162.4471-.0356.8682-.0551 1.257l.107 3.9008.7872 1.3121c-.0032-.0032 1.0303-7.4322.7484-17.5891z" fill="url(#d)"/><path d="m20.2886 16.2214c-4.1729.8197-3.4861 4.9991-2.6794 8.9744.8651 4.2571 3.2496 20.411 3.2496 20.411l9.7519.6058s.2527-1.4547-.1166-3.5346c-1.0918-6.1493-3.7485-18.7231-4.7399-22.6174-1.2927-5.093-5.4656-3.8392-5.4656-3.8392z" fill="url(#f)"/><path d="m30.4943 42.6781c-1.0919-6.1493-3.7485-18.7231-4.7399-22.6174-.7128-2.7992-2.2906-3.6772-3.5703-3.904 3.2463 2.4882 4.6297 15.2176 6.3987 20.6475 1.4903 4.5779 1.9406 6.47 2.067 7.0856-.0324-.3726-.0778-.7744-.1555-1.2117z" fill="url(#g)"/><path d="m19.3494 50.1072c0 2.3619 1.1436 3.4213 1.7138 3.8036.1912.1264.3175.1782.3175.1782l10.6624 7.8048 19.52-4.0466-.5961-12.4961c-10.5328-1.3672-19.3419-6.4958-30.2699-7.3965-1.2019 3.9623-1.3477 9.3988-1.3477 12.1526z" fill="url(#h)"/><path d="m40.1362 50.4766c4.8079-.5119 7.8566 3.4699 8.2389 5.5401l1.5713-.5767-.7127-7.9505-5.0931-3.3241-4.3089-6.5639-9.4021 1.1696-1.3186-4.173c-.0356 0 .0357 0 0 0 0 0-.9493 10.3999 4.2053 11.6894 0 0 2.8414 4.6135 6.8199 4.1891z" fill="url(#i)"/><path d="m35.5 45.3997c-3.4634 0-5.1935-1.3542-5.6762-5.2096s-2.5659-10.8081 3.7939-11.1775c6.0941-.3563 6.2107 3.0001 6.2107 8.5921 0 5.5887-1.3477 7.795-4.3284 7.795z" fill="url(#j)"/><path d="m35.0431 39.4449c-2.6437 1.3478-4.4223 1.377-5.5563-.4632.0259.2073.0551.4146.0745.609.4795 4.3868 2.2128 5.9257 5.6762 5.9257 2.4364 0 3.7809-1.675 4.1891-5.7507-.6803-1.189-2.8219-1.1145-4.3835-.3208z" fill="url(#l)"/><path d="m35.0207 41.0947c-2.8414 0-4.1211-1.513-4.6006-4.62-.2462-1.5972-1.8629-7.1697 3.3532-7.471 4.9991-.2884 5.0023 3.4083 5.106 6.5509.1458 4.5196-1.4126 5.5401-3.8586 5.5401z" fill="url(#m)"/><path d="m33.4329 45.1693c.6091.149 1.2862.23 2.067.23 2.9806 0 4.3284-2.2031 4.3284-7.795 0-5.3911-.1231-8.6925-5.5887-8.605 2.148 1.1436 3.904 3.7387 3.904 8.4365-.0033 6.6773-1.6847 7.7205-4.7107 7.7335z" fill="url(#n)"/><path d="m33.8737 45.3965c-.5864.1815-1.1242-.0777-1.6134-.3337-.4925-.2656-.9363-.6253-1.2992-1.0529-.7322-.8586-1.1113-1.9277-1.3445-2.9839-.2236-1.0724-.2333-2.148-.3175-3.2172l-.1912-3.2107.392 3.1913c.1329 1.0627.2041 2.1383.4633 3.1588.2365 1.0206.6156 2.0314 1.296 2.8057.3369.3888.7419.7096 1.1922.9461.4601.2494.9558.3175 1.4223.6965z" fill="#975500"/><path d="m36.488 29.2163c.5897.1523 1.1696.4018 1.6491.8035.4827.4017.8229.9493 1.0659 1.5195.4957 1.1501.6285 2.4007.7322 3.6221.0583 1.2279.0616 2.4526.0357 3.6772-.0098.6059.0032 1.2215-.026 1.837-.0226.3078-.0226.6188-.0939.9266-.0551.2689-.1912.7225-.5605.6966.3045-.1069.2948-.4601.3629-.7322.0356-.2948.068-.5962.068-.8975.0097-.6058-.0259-1.2149-.0389-1.8305-.0324-1.2214-.0194-2.4428-.1004-3.6577-.0648-1.2053-.1458-2.4364-.58-3.5606-.3887-1.1404-1.3412-2.0314-2.5141-2.404z" fill="#975500"/><path d="m40.1359 50.4759c-3.9786.4245-6.8199-4.1923-6.8199-4.1923-3.8262-1.0594-4.2053-11.6894-4.2053-11.6894-.8553 1.5422.567 10.374 2.5692 12.3633 2.1707 2.1577 4.6913 4.9148 9.0229 4.8176 4.3317-.0972 7.672 4.241 7.672 4.241-.3823-2.0703-3.431-6.0521-8.2389-5.5402z" fill="url(#o)"/><path d="m19.0384 21.5577c-.9719-.2074-.6091-2.148.2139-3.1232.8261-.9752 2.284-1.594 3.256-1.3867.9719.2074.5961 1.3996.2786 2.4493-.5443 1.8111-2.7765 2.2679-3.7485 2.0606z" fill="url(#q)" opacity=".75"/><path d="m51.9746 7.27299c.311-.94279 2.2031-.37258 3.0811.55402.878.92659 1.3348 2.44289 1.0238 3.38889-.311.9428-1.4579.4406-2.4655.0097-1.7398-.7419-1.9504-3.00981-1.6394-3.95261z" fill="url(#r)" opacity=".75"/><path d="m45.3358 43.8034c-3.1945-.1037-4.7496-1.4774-5.0736-5.2647-.3239-3.7874-2.0346-10.6461 3.8425-10.8211 5.6308-.1685 5.6373 3.1167 5.4656 8.5888-.175 5.4689-1.4838 7.5845-4.2345 7.497z" fill="url(#s)"/><path d="m45.1024 37.8939c-2.4817 1.2311-4.1211 1.2052-5.1092-.6156.0194.2009.0388.405.0518.5961.311 4.2734 1.8597 5.8188 5.0541 5.9225 2.2453.0712 3.538-1.513 4.0401-5.4624-.5961-1.1728-2.5756-1.1663-4.0368-.4406z" fill="url(#t)"/><path d="m44.8725 38.2082c-2.621-.0842-3.5962-.3045-3.9461-3.3338-.1814-1.5583-1.5-7.0175 3.3208-7.1535 4.6201-.1329 4.5099 3.4601 4.5099 6.512 0 4.39-1.6264 4.0466-3.8846 3.9753z" fill="url(#u)"/><path d="m43.4402 43.5144c.5572.1653 1.1793.2625 1.8985.2851 2.7507.0875 4.0596-2.0249 4.2313-7.497.1652-5.2712.1522-8.5045-4.8922-8.5823 1.9471 1.1826 3.4861 3.7744 3.3403 8.3653-.2041 6.538-1.7884 7.5067-4.5779 7.4289z" fill="url(#v)"/><path d="m43.8391 43.6419c-.5767.1653-1.0854-.1231-1.5422-.3985-.46-.2883-.8618-.6706-1.1728-1.1112-.635-.8813-.9331-1.9277-1.108-2.958-.1361-1.0432-.1555-2.0767-.2333-3.107l-.1717-3.0941.3693 3.0811c.1296 1.0238.2041 2.0606.3856 3.0617.1814.9946.4827 1.986 1.0756 2.783.2916.3985.6577.7387 1.0756.9914.4212.2721.8942.3531 1.3219.7516z" fill="#975500"/><path d="m46.7451 28.0059c.5637.1684 1.1048.4503 1.5389.8682.4309.4245.7322.9655.9266 1.5325.4018 1.1339.4925 2.3392.5476 3.5185.0097 1.1857-.0195 2.365-.0843 3.5411-.0259.5864-.0356 1.1761-.081 1.7689-.0291.2949-.0388.5962-.1134.891-.0615.256-.1879.6933-.5475.6674.2916-.1004.2786-.4471.3499-.7063.0389-.2818.081-.5702.0875-.865.0259-.5832.013-1.1696.0194-1.7625.0033-1.1793.0519-2.3554.0162-3.5249-.0194-1.1664-.0551-2.3489-.4017-3.4569-.3078-1.121-1.1404-2.0573-2.2582-2.472z" fill="#975500"/><path d="m33.3162 43.1691c0-2.5692 1.7949-2.6502 6.6028-3.0844 3.4375-.3077 7.1731-1.2214 11.9324.6415 5.4332 2.1254 10.5359 5.2032 10.6007 10.7272.0583 4.9472-3.7452 22.546-20.3753 22.546s-22.2156-8.9938-22.7243-23.8938l29.0225 5.9094s.6188-5.2517-2.9353-6.8101c-1.5162-.6642-4.7593-.1296-6.9203-.1296-2.1609 0-5.2032-2.4364-5.2032-5.9062z" fill="url(#w)"/><path d="m53.9443 62.8576c-7.0466 5.2031-6.4732 8.0931-13.0436 8.0931s-10.8081-3.5153-13.8049-6.551c-2.9969-3.0357-5.524-8.0931-6.7616-11.9485-.2916-.9104-.6318-1.6685-.9817-2.3165.5152 14.8838 6.1039 23.8647 22.721 23.8647 16.6301 0 20.4337-17.6021 20.3754-22.5461-.0259-2.1642-.8294-3.9461-2.1189-5.4494.3694 7.0661-.5993 12.5803-6.3857 16.8537z" fill="url(#x)"/><path d="m50.0725 50.8774c-.1263-3.0843-3.8716-6.1654-6.9818-5.8447-2.6859.2787-7.5488.648-9.7228-1.3672.2786 3.1977 3.1005 5.4138 5.1514 5.4138 2.1577 0 5.404-.5346 6.9203.1296 3.5541 1.5584 2.9353 6.8101 2.9353 6.8101s1.824-2.0573 1.6976-5.1416z" fill="url(#y)"/><path d="m62.449 51.4574c-.0648-5.5239-5.1676-8.6018-10.6008-10.7271-4.7593-1.8629-8.4948-.9525-11.9323-.6415-3.6643.3305-5.5725.4633-6.2723 1.6459 4.5163-1.1307 8.7508-1.5908 13.9669-.9882 6.8004.7873 11.9388 5.025 12.8719 8.2713.9234 3.2042.7873 9.1752.784 9.3146.878-2.8738 1.202-5.4235 1.1826-6.875z" fill="url(#z)"/><path d="m48.375 56.0156c.0842-1.2409-.0162-2.5076-.4018-3.6869-.3693-1.1664-1.0983-2.2809-2.1966-2.8446-1.0659-.6221-2.3813-.5119-3.6027-.4892-1.2441.0518-2.4785.1976-3.742.1911-2.5983-.2268-4.6848-2.459-5.1611-4.9472-.1198-.6286-.149-1.27-.0291-1.918.1166-.6512.5994-1.2538 1.202-1.5163 1.2019-.5345 2.472-.5928 3.7063-.7419 2.4915-.1555 4.9408-.6091 7.4646-.6253 2.5174-.0388 5.025.5605 7.3026 1.5876 2.2906.9849 4.5488 2.148 6.4214 3.8327 1.8726 1.6588 3.1491 4.0692 3.1102 6.5898-.0226-2.5238-1.3413-4.8662-3.2268-6.4602-1.8629-1.6426-4.1114-2.783-6.3955-3.742-2.2744-1.0044-4.7269-1.5649-7.2086-1.5098-2.472.0324-4.9473.5087-7.4322.6804-1.2247.1328-2.5044.2008-3.5995.6803-.5443.2398-.9266.7128-1.0432 1.2927-.1102.5767-.094 1.2052.0162 1.7981.4179 2.3651 2.4461 4.5423 4.8759 4.7626 1.2312.0162 2.4785-.1199 3.7259-.162 1.2246-.0097 2.5659-.1296 3.6966.5443 1.1307.6123 1.8467 1.7819 2.1934 2.9677.3661 1.2085.4374 2.4785.324 3.7161z" fill="#975500"/><path d="m22.4141 50.6147c-1.526 1.8597 3.1167 12.5738 7.6979 15.2726 4.5811 2.6988 10.3253 1.8694 11.4431-.2754 1.121-2.1448-3.6449-5.4785-7.5391-9.1687-6.7227-6.3663-10.0727-7.6882-11.6019-5.8285z" fill="url(#A)" opacity=".75"/><path d="m59.7599 51.985c.8132-1.1048-3.2463-7.9636-6.4862-9.8135-3.2398-1.85-9.6191-.7517-10.1407.5475s5.6276 2.7636 8.5208 5.2064c4.9894 4.2215 7.2961 5.1676 8.1061 4.0596z" fill="url(#B)" opacity=".75"/><path d="m21.912 56.4636c-2.9969-5.2777-.4633-14.3914-1.027-16.1798-.5638-1.7884-.3759-8.5564-1.8824-14.67-.9136-3.7128-1.2408-6.3274-.5767-8.605-2.0508 1.5843-1.4741 4.9505-.8164 8.1838.5508 2.7085 1.7139 10.2152 2.4882 15.3309-.6447 3.4991-.7484 7.3869-.7484 9.5835.4568 13.4162 5.0574 22.018 18.0977 23.6055-7.9991-1.3769-12.7293-12.3082-15.535-17.2489z" fill="url(#C)"/><path d="m40.4469 73.9459c-.3661-.055-.797-.0874-1.3186-.0874-.5119 0-1.0076-.0519-1.4935-.1231.8974.1036 1.837.1717 2.8121.2105z" fill="url(#D)"/></svg>